<svg width="42" height="30" viewBox="0 0 42 30" fill="none" xmlns="http://www.w3.org/2000/svg">
<path d="M0 27.5C0 28.8807 1.11929 30 2.5 30H39.5C40.8807 30 42 28.8807 42 27.5V27.5C42 26.1193 40.8807 25 39.5 25H2.5C1.11929 25 0 26.1193 0 27.5V27.5ZM0 15C0 16.3807 1.11929 17.5 2.5 17.5H39.5C40.8807 17.5 42 16.3807 42 15V15C42 13.6193 40.8807 12.5 39.5 12.5H2.5C1.11929 12.5 0 13.6193 0 15V15ZM2.5 0C1.11929 0 0 1.11929 0 2.5V2.5C0 3.88071 1.11929 5 2.5 5H39.5C40.8807 5 42 3.88071 42 2.5V2.5C42 1.11929 40.8807 0 39.5 0H2.5Z" fill="#9B51E0"/>
</svg>
